<?xml version="1.0" encoding="UTF-8"?>
<svg version="1.1" xmlns="http://www.w3.org/2000/svg" width="106" height="106">
<path d="M0 0 C3.4375 0.8125 3.4375 0.8125 5.4375 2.8125 C10.44602766 3.3858668 15.52830745 3.24099886 20.375 1.8125 C26.30891961 0.10833714 33.53598891 -0.65715106 39.13671875 2.1796875 C47.24754428 7.93575723 48.12600369 15.32737686 50.00390625 24.61328125 C52.02455021 33.394822 56.56602103 42.87258007 64.4375 47.8125 C66.89382332 48.56271244 66.89382332 48.56271244 69.4375 47.8125 C72.09164528 45.15835472 74.04114511 42.40155278 76.1328125 39.29296875 C77.02613281 37.97232422 77.02613281 37.97232422 77.9375 36.625 C78.4840625 35.78582031 79.030625 34.94664063 79.59375 34.08203125 C81.64656304 31.55515757 83.53616928 30.25845541 86.4375 28.8125 C87.0975 28.8125 87.7575 28.8125 88.4375 28.8125 C88.4375 30.4625 88.4375 32.1125 88.4375 33.8125 C87.715625 33.81507812 86.99375 33.81765625 86.25 33.8203125 C81.88051351 35.36177024 80.61841849 38.76866209 78.4375 42.6875 C73.35445287 51.72579317 73.35445287 51.72579317 68.4375 53.8125 C62.63059567 54.55156055 60.02632603 53.2775319 55.4375 49.8125 C49.0509388 45.31049784 44.14483062 43.19372541 36.1875 44.4375 C31.34044523 45.11924698 27.50765722 43.94276909 22.91796875 42.40625 C19.1296007 41.49942804 17.16273518 42.4153474 13.8125 44.25 C10.37019328 47.96406777 10.06549311 51.90103151 9.4375 56.8125 C10.0975 56.8125 10.7575 56.8125 11.4375 56.8125 C11.4375 57.4725 11.4375 58.1325 11.4375 58.8125 C9.4575 59.3075 9.4575 59.3075 7.4375 59.8125 C7.1075 57.1725 6.7775 54.5325 6.4375 51.8125 C2.18180085 58.84503813 2.18180085 58.84503813 0.4375 66.8125 C-1.0475 65.8225 -1.0475 65.8225 -2.5625 64.8125 C-3.67625 65.493125 -4.79 66.17375 -5.9375 66.875 C-7.8359375 68.03515625 -7.8359375 68.03515625 -9.5625 68.8125 C-10.2225 68.4825 -10.8825 68.1525 -11.5625 67.8125 C-10.91023437 67.43480469 -10.25796875 67.05710937 -9.5859375 66.66796875 C-3.27444224 62.69302999 0.02185659 59.02324831 3.18359375 52.265625 C4.3716603 49.94130789 5.48919956 48.51655286 7.4375 46.8125 C2.69395564 44.58593836 -1.28500715 43.35101968 -6.5625 42.8125 C-4.5625 40.8125 -4.5625 40.8125 -1.9375 40.6875 C-1.15375 40.72875 -0.37 40.77 0.4375 40.8125 C0.4375 39.1625 0.4375 37.5125 0.4375 35.8125 C0.7675 35.8125 1.0975 35.8125 1.4375 35.8125 C1.7675 38.1225 2.0975 40.4325 2.4375 42.8125 C6.0675 42.8125 9.6975 42.8125 13.4375 42.8125 C15.72632349 33.51415456 17.94579069 22.03517645 13.625 13.0625 C10.44807214 8.3424929 7.75364395 6.02755998 2.4375 3.8125 C1.4475 4.1425 0.4575 4.4725 -0.5625 4.8125 C-1.36462628 6.68637216 -1.36462628 6.68637216 -1.75 8.875 C-1.90855469 9.60847656 -2.06710937 10.34195313 -2.23046875 11.09765625 C-2.34003906 11.66355469 -2.44960937 12.22945312 -2.5625 12.8125 C-3.5525 12.4825 -4.5425 12.1525 -5.5625 11.8125 C-4.9025 9.5025 -4.2425 7.1925 -3.5625 4.8125 C-7.99299103 7.02774552 -10.43538812 9.30302282 -12.5625 13.8125 C-12.29400631 16.73434314 -11.53073819 19.00460924 -10.5625 21.8125 C-11.2225 21.8125 -11.8825 21.8125 -12.5625 21.8125 C-14.0625 19.3125 -14.0625 19.3125 -15.5625 16.8125 C-16.2225 16.8125 -16.8825 16.8125 -17.5625 16.8125 C-17.5625 14.8125 -17.5625 14.8125 -16 13.1875 C-15.195625 12.40375 -14.39125 11.62 -13.5625 10.8125 C-11.77054067 8.79654576 -10.00691188 6.75802024 -8.24609375 4.71484375 C-7.69050781 4.08707031 -7.13492187 3.45929687 -6.5625 2.8125 C-6.07007813 2.23242188 -5.57765625 1.65234375 -5.0703125 1.0546875 C-3.5625 -0.1875 -3.5625 -0.1875 0 0 Z M39.4375 19.8125 C39.4375 21.1325 39.4375 22.4525 39.4375 23.8125 C40.4275 23.4825 41.4175 23.1525 42.4375 22.8125 C42.1075 21.8225 41.7775 20.8325 41.4375 19.8125 C40.7775 19.8125 40.1175 19.8125 39.4375 19.8125 Z " fill="#000000" transform="translate(17.5625,23.1875)"/>
<path d="M0 0 C2.74526635 1.37263317 3.44355648 3.40592747 5 6 C5.66 6.33 6.32 6.66 7 7 C6.67 7.99 6.34 8.98 6 10 C2.535 8.02 2.535 8.02 -1 6 C-0.67 4.02 -0.34 2.04 0 0 Z " fill="#000000" transform="translate(6,13)"/>
</svg>
